<?xml version="1.0" standalone="no"?>
<!DOCTYPE svg PUBLIC "-//W3C//DTD SVG 1.1//EN" "http://www.w3.org/Graphics/SVG/1.1/DTD/svg11.dtd" >
<svg xmlns="http://www.w3.org/2000/svg" xmlns:svg="http://www.w3.org/2000/svg" xmlns:xlink="http://www.w3.org/1999/xlink" viewBox="0 0 1024 1024"><path d="M119.24 888.89Q127.8 852.55 129.97 834.57Q171.58 771.96 184.26 774.01Q167.73 752.68 171.2 717.89Q171.89 677.8 188.19 637.57Q178.27 597.76 177.97 561.42Q193.5 534.79 186.09 530.83Q194.07 545.35 201.06 537.13Q228.9 548.23 219.02 531.91Q230.28 552.54 257.14 602.63L250.41 607.36H340.76L333.16 563.42Q338.16 547.91 340.83 562.81Q379.59 559.84 353.78 531.74Q395.9 542.55 375.43 527.41Q400.86 538.34 402.54 573.15Q397.29 574.07 407.36 615.12Q401.66 598.74 395.8 635.83Q427.94 635.39 407.34 663.28Q369.01 652.07 335.83 669.79Q293.53 665.77 283.55 659.15Q241.97 664.28 250.42 697.41Q249.91 677.24 261.35 694.84Q266.66 682.42 274.59 683.04Q300 676.31 300.89 704.2Q314.12 705.78 378.98 686.35L491.74 673.2L479.14 519.59L361.45 522.82Q264.03 496.66 243.97 523.29Q217.59 526.38 223.66 505.95Q224.16 487.57 219.59 482.37Q200.14 495.51 214.77 465.15Q227.79 449.32 260.64 473.75Q273.51 472.07 374.56 470.95L497.66 458.73L477.22 419.07L321.41 413.63Q189.03 412.26 167.21 408.95Q105.36 426.98 121.13 417.83Q95.27 380.96 126.56 384.25Q113.55 394.66 99.15 372.05Q106.19 400.65 102.78 381.62L101.19 374.53L277.29 370.68Q353.12 369.15 375.79 360.02Q447.17 354.6 472.81 370.75Q461.67 360.63 485.64 363.07Q493.56 358.09 487.56 348.35Q496.93 320.94 486.57 319.89Q478.49 326.87 472.96 351.57Q486.54 341.32 431.06 312.35Q393.17 324.53 344.43 324.53Q269.86 323.39 216.39 333.27Q182.09 321.18 186.94 305.54Q208.99 304.81 182.75 283.48Q203.46 303.62 206.7 300.28Q193.23 264.08 238.74 273.58Q230.37 277.6 327.66 256.03H479.65L504.68 252.58Q522.21 254.31 531.32 242.8Q519.98 253.85 502.72 246.58Q520.88 218.56 518.54 232.38Q551.29 244.71 539.83 251.61L551.32 256.74H645.98Q655.15 260.91 677.87 285.74Q760.82 271.21 791.72 287.7Q804.3 284.69 810.61 303.18Q792.86 307.11 802.83 324.14V351.45L849.64 370.94Q905.76 355.99 916.53 357.49Q909.23 354.61 926.46 353.23Q916.11 377.52 909 364.52Q938.66 370.64 928.94 406.62Q927.17 401.47 947.24 380.74Q922.7 409.02 905.62 417.15Q897.67 408.79 844.51 426.64Q830.03 420.37 803.53 413.52Q811.36 416.81 810.24 446.23Q776.1 426.65 809.18 441.74Q790.82 441.16 786.09 450.13Q792.29 457.08 786.66 473.67Q772.68 490.91 781.91 491.26Q784.84 485.89 787.81 500.29Q787.28 510.68 796.5 518.02Q774.34 504.39 767.75 506.21Q736.1 506.66 667.69 526.66H539.52L534.77 531.88Q557.54 567.58 551.71 574.63Q549.24 615.25 534.22 634.37L563.18 678.88H767.11Q768.57 698.04 757.44 690.22Q778.2 699.36 765.23 672.74Q764.21 660.92 762.89 665.13Q738.24 685.94 710.37 682.04Q664.42 674.27 630.18 668.79Q629.9 647.88 596.53 598.65Q629.12 614.61 608.53 610.64Q606.03 567.88 637.88 550.03Q628.89 540.28 648.27 528.88Q642.4 548.95 638.17 547.05Q652.27 536.67 658.03 542.95Q667.13 556.85 657.2 599.55Q672 610.22 670.25 608.89Q673.25 614.43 718.5 600.79Q703.55 624.87 724.12 617.89L788.06 611.5L782.03 602.18Q778.7 593.51 778.76 563.2Q773.69 539.73 773.96 568.63Q782.53 544.33 821.72 553.89Q811.22 547.77 813.68 548.29Q832.48 553.31 847.52 549.06Q845.5 554.79 858.75 632.55Q838.73 679.46 837.95 756.36Q846.09 850.06 868.31 916.12Q845.53 938.26 851.78 949.52Q825.09 965.76 842.99 937.41Q818.71 931.05 808.86 954.04Q794.73 939.58 797.1 947.34Q804.34 914.31 811.39 916.25Q780.22 892.44 782.48 870.38L771.47 856.94H689.8L669.4 873.43Q663.54 904.4 668.69 903.75Q674.26 913.04 646.53 914.37Q673.86 946.88 655.77 921.17Q640.27 922.55 640.73 930.94Q636.97 918.43 625.63 926.56Q624.1 917.92 630.8 897.56Q618.09 903.34 627.54 846.05Q607.45 826.36 631.08 818.08Q640.94 791.94 656.95 790.4Q641.91 764.43 746.12 795.79Q782.43 782 758.82 764.84Q793.93 760.29 799.16 773.26V730.97H649.01L559.65 754.28L537.76 845.88Q528.6 918.22 527.8 933.85Q543.08 932.5 517.16 959.31Q537.91 939.48 492.09 932.45Q512.93 939.74 507.69 955.14Q461.76 949.37 467.94 926.29Q459.58 887.19 467.94 832.61L459.7 757.17H372.5Q269.86 751.51 241.3 759.64Q259.31 754.17 242.03 762.2Q222.19 762.83 225.11 775.17Q224.6 752.65 234.16 751.34Q224.28 778.37 252.49 792.38Q254.65 760.52 298.22 776.01Q351.37 775.91 362.48 802.52Q378.37 769.44 399.8 793.6Q390.47 788.69 407.96 869.31Q394.74 922.44 387.18 953.85Q392.9 930.72 379 953.83Q381.04 933.24 397.81 934.48Q397.08 947.5 368.48 943.37Q371.3 913.8 371.79 913.81Q363.23 906.3 332.91 899.49L365.89 823.09H225.33L187.18 881.91Q209.7 886.87 180.67 869.97Q188.07 901.59 184.68 889.95Q158.47 905.08 170.13 907.78Q148.19 913.7 158.02 919.53Q146.1 946.54 136.42 948.55Q132.98 954.84 114.03 931.54Q116.36 927.59 110.74 914.84Q101.56 917.46 110.04 921.19Q118.83 917.58 95.74 919.37Q116.1 888.3 96.9 886.16ZM102.98 136.58Q97.9 141.22 129.46 136.65Q169.29 133.87 229.72 136.7Q299.1 135.47 297.61 132.74Q303.2 143.54 328.44 105.99Q330.53 106.37 298.43 117.54Q320.43 126.63 313.01 104.15Q333.85 98 319.44 85.13Q342.12 92.88 334.2 93.19Q363.38 87.66 371.04 73.22Q384.73 70.63 389.2 99.67Q411.52 130.03 412.95 120.5Q409.64 110.35 386.12 143.38Q381.85 128.6 407.58 129.93Q431.95 140.91 530.29 134.77Q583.86 129.85 622.77 113.82Q653.36 128.47 643.94 145.34Q638.29 144.61 643.75 120.23Q648.77 112.39 633.13 101.16Q630.08 108.07 640.35 104.81Q670.51 77.59 664.46 62.78Q688.04 75.72 708.11 94.3Q687.11 74.96 714.03 77.78Q734.72 91.71 728.79 131.32Q721.53 120.58 711.27 138.38Q705.01 119.02 734.9 116.34Q708.96 142.13 758.88 126.18Q774.18 147.03 821.21 130.12Q868.64 151.91 916.67 128.45Q929.21 161.87 918.09 163.32Q931.99 138.84 945.31 148.91Q946.45 153.04 943.14 190.89Q932.28 166.14 910.28 179.68Q911.87 204.06 908.12 211.38Q872.95 210.34 795.18 218.86H693.54L707.83 226.47Q673.72 263.5 672.47 259.63Q639.22 240.41 660.61 234.83Q635.14 245.26 619.62 223.37L619.64 217.25H425.91L426.57 222.55Q381.82 218.39 389.45 246.29Q367.68 256.17 321.34 213.37Q320.73 209.97 310.19 197.45Q316.49 188.25 236.48 181.26Q185.41 217.18 155.18 215.38Q106.49 174.17 101 193.35Q74.13 178.13 72.83 166.63Q83.69 158.65 78.96 179.08Q105.97 145.4 114.22 146.49ZM574.27 455.34H727.56L724.84 431.71Q722.25 450.22 717.71 415.8Q743.49 424.63 722.36 417.64Q742.11 436.34 694.55 424.58Q659.82 432.06 636.59 423.84H575.22ZM545.52 375.39L644.46 360.54Q679.83 372.84 711.24 373.94Q734.33 365.77 721.25 332.8Q735.24 343.38 733.82 335.9Q733.71 334.75 713.99 345.74Q705.46 332.28 713.33 326.71Q710.78 334.25 641.84 314.79L576.65 336.85Z" fill="black"></path></svg>