<?xml version="1.0" standalone="no"?>
<!DOCTYPE svg PUBLIC "-//W3C//DTD SVG 1.1//EN" "http://www.w3.org/Graphics/SVG/1.1/DTD/svg11.dtd" >
<svg xmlns="http://www.w3.org/2000/svg" xmlns:svg="http://www.w3.org/2000/svg" xmlns:xlink="http://www.w3.org/1999/xlink" viewBox="0 0 1024 1024"><path d="M112.0 873.0Q130.0 853.0 148.5 818.5Q167.0 784.0 171.0 763.0Q173.0 752.0 175.5 719.5Q178.0 687.0 180.0 648.0Q184.0 608.0 186.5 580.0Q189.0 552.0 193.0 549.0Q205.0 538.0 216.0 538.0Q223.0 538.0 235.5 546.0Q248.0 554.0 256.0 586.0L261.0 613.0H349.0L351.0 583.0Q353.0 563.0 356.5 556.0Q360.0 549.0 373.0 545.0Q379.0 543.0 384.0 543.0Q395.0 543.0 404.5 556.5Q414.0 570.0 414.0 606.0Q415.0 613.0 415.0 620.0Q415.0 646.0 400.0 656.0Q385.0 666.0 329.0 666.0Q281.0 667.0 267.0 670.5Q253.0 674.0 253.0 679.0Q253.0 681.0 256.0 684.0Q257.0 689.0 274.5 689.5Q292.0 690.0 305.0 690.0Q329.0 690.0 367.0 689.0L477.0 685.0L481.0 518.0L353.0 514.0Q268.0 514.0 244.0 511.5Q220.0 509.0 216.0 500.0Q211.0 493.0 211.0 487.5Q211.0 482.0 216.0 475.0Q220.0 466.0 243.0 463.0Q266.0 460.0 355.0 459.0L482.0 455.0L486.0 419.0L308.0 417.0Q193.0 417.0 157.5 414.5Q122.0 412.0 119.0 405.0Q112.0 399.0 111.5 395.0Q111.0 391.0 111.0 390.0Q111.0 384.0 113.0 376.0L121.0 358.0L297.0 360.0Q346.0 360.0 380.0 360.0Q431.0 360.0 455.0 359.0Q479.0 358.0 479.0 349.0Q482.0 343.0 482.5 340.0Q483.0 337.0 483.0 336.0Q483.0 334.0 481.0 333.0Q477.0 331.0 438.5 329.0Q400.0 327.0 342.0 325.0Q257.0 322.0 229.5 319.0Q202.0 316.0 198.0 309.0Q191.0 302.0 191.0 296.5Q191.0 291.0 194.0 284.0Q194.0 275.0 219.5 272.5Q245.0 270.0 344.0 270.0H488.0L500.0 253.0Q506.0 246.0 512.0 241.5Q518.0 237.0 522.0 237.0Q526.0 237.0 530.5 241.5Q535.0 246.0 538.0 253.0L544.0 270.0H657.0Q674.0 270.0 689.0 270.0Q756.0 270.0 777.0 277.5Q798.0 285.0 798.0 312.0Q798.0 317.0 797.0 322.0V352.0L857.0 356.0Q891.0 356.0 905.5 358.5Q920.0 361.0 923.0 369.0Q927.0 374.0 928.5 379.0Q930.0 384.0 930.0 387.0Q930.0 389.0 929.0 392.0Q923.0 408.0 907.0 413.5Q891.0 419.0 851.0 419.0Q812.0 419.0 804.0 421.5Q796.0 424.0 796.0 435.0Q796.0 442.0 795.0 448.5Q794.0 455.0 794.0 459.0Q794.0 460.0 793.0 465.5Q792.0 471.0 792.0 477.0Q790.0 484.0 786.5 491.0Q783.0 498.0 778.0 504.0Q772.0 513.0 750.5 514.5Q729.0 516.0 662.0 516.0H558.0L554.0 550.0Q553.0 565.0 551.0 589.0Q549.0 613.0 549.0 635.0L545.0 685.0H770.0Q772.0 685.0 773.0 682.5Q774.0 680.0 774.0 676.0Q774.0 673.0 758.5 670.0Q743.0 667.0 707.0 666.0Q648.0 664.0 632.0 652.0Q616.0 640.0 616.0 606.0Q616.0 601.0 616.0 597.0Q616.0 574.0 618.5 563.0Q621.0 552.0 630.0 545.0Q639.0 536.0 647.0 536.0Q653.0 536.0 661.5 545.0Q670.0 554.0 677.0 595.0Q679.0 610.0 685.5 611.0Q692.0 612.0 705.0 612.0Q714.0 612.0 727.0 612.0L774.0 610.0L778.0 588.0Q779.0 577.0 782.0 568.0Q785.0 559.0 787.0 556.0Q793.0 548.0 806.0 548.0Q809.0 548.0 818.5 549.0Q828.0 550.0 835.0 559.0Q837.0 567.0 841.5 621.0Q846.0 675.0 850.0 752.0Q855.0 869.0 855.0 904.0Q855.0 939.0 848.0 943.0Q840.0 949.0 830.0 949.0Q826.0 949.0 816.0 947.0Q806.0 945.0 801.0 932.0Q799.0 927.0 796.5 912.5Q794.0 898.0 792.0 882.0L788.0 840.0H680.0L679.0 880.0Q679.0 903.0 675.0 913.0Q671.0 923.0 662.0 928.0Q654.0 935.0 650.0 935.0Q649.0 935.0 646.5 934.5Q644.0 934.0 635.0 925.0Q626.0 918.0 624.5 904.5Q623.0 891.0 623.0 856.0Q622.0 846.0 622.0 838.0Q622.0 802.0 637.5 792.5Q653.0 783.0 738.0 783.0Q770.0 783.0 777.5 780.0Q785.0 777.0 785.0 766.0V750.0H666.0L547.0 752.0L544.0 846.0Q542.0 900.0 539.0 920.5Q536.0 941.0 531.0 945.0Q522.0 950.0 511.0 950.0Q500.0 950.0 490.0 941.0Q481.0 937.0 478.0 918.5Q475.0 900.0 475.0 842.0L472.0 752.0H356.0Q277.0 752.0 259.5 754.5Q242.0 757.0 242.0 763.0Q242.0 764.0 243.0 766.0Q243.0 767.0 243.0 768.0Q243.0 775.0 254.5 777.0Q266.0 779.0 317.0 781.0Q349.0 781.0 372.5 783.5Q396.0 786.0 400.0 790.0Q409.0 804.0 409.0 860.0Q409.0 916.0 400.0 936.0Q392.0 943.0 389.5 943.5Q387.0 944.0 386.0 944.0Q382.0 944.0 371.0 937.0Q360.0 932.0 355.5 922.0Q351.0 912.0 349.0 882.0L347.0 837.0H218.0L203.0 864.0Q196.0 874.0 190.0 886.0Q184.0 898.0 180.0 903.0Q176.0 910.0 169.0 917.5Q162.0 925.0 155.0 928.0Q144.0 934.0 139.5 934.5Q135.0 935.0 134.0 935.0Q127.0 935.0 119.0 930.0Q101.0 921.0 100.0 912.5Q99.0 904.0 99.0 902.0Q99.0 889.0 112.0 873.0ZM99.0 142.0Q103.0 138.0 130.0 136.5Q157.0 135.0 212.0 135.0Q284.0 135.0 300.5 132.0Q317.0 129.0 317.0 122.0Q317.0 121.0 317.0 120.0Q317.0 115.0 319.5 107.0Q322.0 99.0 326.0 91.0Q337.0 74.0 353.0 74.0Q361.0 74.0 377.5 81.5Q394.0 89.0 395.0 113.0Q394.0 116.0 394.0 120.0Q392.0 122.0 392.0 124.0Q392.0 130.0 410.0 132.5Q428.0 135.0 517.0 135.0Q598.0 135.0 619.0 133.0Q640.0 131.0 640.0 126.0Q640.0 125.0 639.0 124.0Q638.0 119.0 638.0 115.0Q638.0 101.0 651.0 89.5Q664.0 78.0 680.0 78.0Q684.0 78.0 689.0 79.0Q702.0 84.0 710.0 97.5Q718.0 111.0 718.0 119.0Q718.0 123.0 716.0 127.0Q716.0 127.0 716.0 127.0Q716.0 129.0 741.5 132.0Q767.0 135.0 817.0 135.0Q878.0 136.0 901.5 139.0Q925.0 142.0 927.0 147.0Q933.0 156.0 933.0 165.0Q933.0 167.0 932.0 174.0Q931.0 181.0 920.0 192.0Q914.0 201.0 893.5 203.0Q873.0 205.0 805.0 205.0H704.0L691.0 225.0Q677.0 251.0 657.0 251.0Q656.0 251.0 645.0 250.5Q634.0 250.0 619.0 221.0L608.0 199.0H416.0L407.0 216.0Q394.0 237.0 372.5 237.0Q351.0 237.0 338.0 216.0Q337.0 205.0 318.0 202.0Q299.0 199.0 220.0 199.0Q167.0 199.0 135.5 196.5Q104.0 194.0 99.0 190.0Q92.0 183.0 91.5 174.0Q91.0 165.0 91.0 164.0Q91.0 150.0 99.0 142.0ZM558.0 459.0H724.0L727.0 442.0Q729.0 435.0 729.0 429.5Q729.0 424.0 727.0 423.0Q725.0 421.0 700.0 420.0Q675.0 419.0 641.0 419.0H558.0ZM558.0 361.0 641.0 360.0Q697.0 358.0 710.0 356.0Q723.0 354.0 723.0 348.0Q723.0 347.0 722.0 345.0Q723.0 343.0 723.0 342.0Q723.0 336.0 710.0 333.5Q697.0 331.0 641.0 329.0L558.0 327.0Z" fill="black"></path></svg>